<svg width="62" height="62" viewBox="0 0 62 62" fill="none" xmlns="http://www.w3.org/2000/svg">
<path d="M54.25 25.8334H7.75M41.3333 5.16669V15.5M20.6667 5.16669V15.5M20.15 56.8334H41.85C46.1904 56.8334 48.3606 56.8334 50.0184 55.9887C51.4767 55.2456 52.6623 54.06 53.4053 52.6018C54.25 50.944 54.25 48.7738 54.25 44.4334V22.7334C54.25 18.3929 54.25 16.2227 53.4053 14.5649C52.6623 13.1067 51.4767 11.9211 50.0184 11.1781C48.3606 10.3334 46.1904 10.3334 41.85 10.3334H20.15C15.8096 10.3334 13.6394 10.3334 11.9816 11.1781C10.5233 11.9211 9.33772 13.1067 8.5947 14.5649C7.75 16.2227 7.75 18.3929 7.75 22.7334V44.4334C7.75 48.7738 7.75 50.944 8.5947 52.6018C9.33772 54.06 10.5233 55.2456 11.9816 55.9887C13.6394 56.8334 15.8096 56.8334 20.15 56.8334Z" stroke="#6671E8" stroke-width="4" stroke-linecap="round" stroke-linejoin="round"/>
</svg>
