<svg width="63" height="63" viewBox="0 0 63 63" fill="none" xmlns="http://www.w3.org/2000/svg">
<path d="M11.8125 57.75V44.625M11.8125 18.375V5.25M5.25 11.8125H18.375M5.25 51.1875H18.375M34.125 7.875L29.5728 19.7108C28.8325 21.6355 28.4624 22.5979 27.8868 23.4073C27.3766 24.1248 26.7498 24.7516 26.0323 25.2618C25.2229 25.8374 24.2605 26.2075 22.3358 26.9478L10.5 31.5L22.3358 36.0522C24.2605 36.7925 25.2229 37.1626 26.0324 37.7382C26.7498 38.2484 27.3766 38.8752 27.8868 39.5926C28.4624 40.4021 28.8325 41.3645 29.5728 43.2892L34.125 55.125L38.6772 43.2892C39.4175 41.3645 39.7876 40.4021 40.3632 39.5927C40.8734 38.8752 41.5002 38.2484 42.2177 37.7382C43.0271 37.1626 43.9895 36.7925 45.9142 36.0522L57.75 31.5L45.9142 26.9478C43.9895 26.2075 43.0271 25.8374 42.2177 25.2618C41.5002 24.7516 40.8734 24.1248 40.3632 23.4073C39.7876 22.5979 39.4175 21.6355 38.6772 19.7108L34.125 7.875Z" stroke="#6671E8" stroke-width="5" stroke-linecap="round" stroke-linejoin="round"/>
</svg>
